<svg xmlns="http://www.w3.org/2000/svg" xmlns:xlink="http://www.w3.org/1999/xlink" viewBox="0 0 252.426 49.117">
  <defs>
    <style>
      .cls-1 {
        fill: #fff;
      }

      .cls-2 {
        fill: #ff5f00;
      }

      .cls-3 {
        fill: #eb001b;
      }

      .cls-4 {
        fill: #f79e1b;
      }

      .cls-5 {
        clip-path: url(#clip-path);
      }

      .cls-6 {
        fill: #dcddfd;
      }
    </style>
    <clipPath id="clip-path">
      <path id="path10273" d="M1840.056-495.169c-.039,3.065,2.731,4.775,4.818,5.792,2.144,1.043,2.864,1.712,2.856,2.645-.016,1.428-1.71,2.058-3.3,2.083a11.5,11.5,0,0,1-5.653-1.344l-1,4.662a16.577,16.577,0,0,0,6.121,1.129c5.781,0,9.564-2.854,9.584-7.279.022-5.616-7.767-5.927-7.714-8.437.018-.761.745-1.573,2.336-1.78a10.36,10.36,0,0,1,5.427.951l.968-4.511a14.757,14.757,0,0,0-5.151-.945c-5.442,0-9.269,2.893-9.3,7.033m23.749-6.645a2.508,2.508,0,0,0-2.342,1.561l-8.259,19.719h5.778l1.15-3.177h7.06l.667,3.177h5.092l-4.443-21.28h-4.7m.808,5.749,1.667,7.991h-4.566l2.9-7.991m-31.562-5.749-4.554,21.28H1834l4.552-21.28h-5.5m-8.144,0-5.73,14.484-2.318-12.315a2.566,2.566,0,0,0-2.539-2.168h-9.367l-.131.618a22.918,22.918,0,0,1,5.432,1.811,2.33,2.33,0,0,1,1.307,1.87l4.39,16.982h5.818l8.92-21.28h-5.781" transform="translate(-1804.822 502.203)"/>
    </clipPath>
  </defs>
  <g id="White_background" data-name="White background" transform="translate(-18 -22.883)">
    <path id="twispay" class="cls-1" d="M38.827,5.234a2.639,2.639,0,0,0,1.819-.712A2.416,2.416,0,0,0,41.4,2.664a2.474,2.474,0,0,0-.751-1.9,2.6,2.6,0,0,0-3.638,0,2.591,2.591,0,0,0-.751,1.9,2.416,2.416,0,0,0,.751,1.858A2.471,2.471,0,0,0,38.827,5.234ZM10.4,18.045l-.316.316a2.807,2.807,0,0,1-.554.4,4.285,4.285,0,0,1-.751.316,2.128,2.128,0,0,1-.87.158c-1.226,0-1.858-.791-1.858-2.333V9.781H10.6V6.341H6.049V4.009a2.715,2.715,0,0,0-.277-1.344,2.706,2.706,0,0,0-.672-.83,2.03,2.03,0,0,0-.949-.4,8.349,8.349,0,0,0-1.028-.079H2.61c-.158,0-.316.04-.474.04l-.514.079V6.341H0v3.4H1.621v7.2c0,.474.04.988.079,1.463a7.8,7.8,0,0,0,.277,1.384,4.126,4.126,0,0,0,1.542,2.1,5.491,5.491,0,0,0,3.163.791,9.964,9.964,0,0,0,1.9-.2,6.862,6.862,0,0,0,1.5-.554,3.463,3.463,0,0,0,.949-.751,1.574,1.574,0,0,0,.356-.83,2.186,2.186,0,0,0-.277-.988A6.881,6.881,0,0,0,10.4,18.045ZM32.382,6.3a2.253,2.253,0,0,0-1.858.751,6.006,6.006,0,0,0-.988,2.254l-2.1,7.512L24.633,8.081a3.368,3.368,0,0,0-.909-1.344A2.445,2.445,0,0,0,22.26,6.3a9.694,9.694,0,0,0-1.068.079,9.726,9.726,0,0,0-1.147.277l1.542,5.1-2.175,5.417L16.488,8.16A2.64,2.64,0,0,0,15.42,6.7a3.21,3.21,0,0,0-1.7-.435,5.561,5.561,0,0,0-1.107.119c-.4.079-.83.2-1.226.316l5.14,14.076a2.309,2.309,0,0,0,4.31.119l2.412-5.812L25.3,20.773a2.346,2.346,0,0,0,2.175,1.542h.2a2.291,2.291,0,0,0,2.175-1.582L34.6,6.7a10.908,10.908,0,0,0-1.068-.316A10.445,10.445,0,0,0,32.382,6.3Zm9.173,2.965a2.526,2.526,0,0,0-.909-2.254,4.784,4.784,0,0,0-2.372-.554,10.735,10.735,0,0,0-1.147.04,1.847,1.847,0,0,0-.672.119l.04,5.773,2.016,1.779.2.2-.83.87A6.925,6.925,0,0,0,36.1,19.745,2.526,2.526,0,0,0,37.008,22a4.836,4.836,0,0,0,2.412.554,10.734,10.734,0,0,0,1.147-.04,1.847,1.847,0,0,0,.672-.119l-.04-5.773-2.016-1.779-.237-.2.83-.87A6.925,6.925,0,0,0,41.555,9.267Zm11.822,4.31a5.529,5.529,0,0,0-1.74-.87,15.485,15.485,0,0,0-1.937-.514q-2.372-.534-2.372-1.661a1.635,1.635,0,0,1,.2-.751,1.377,1.377,0,0,1,.514-.435,2.4,2.4,0,0,1,.712-.2,4.785,4.785,0,0,1,.751-.04,4.442,4.442,0,0,1,1.265.158,6.442,6.442,0,0,1,1.226.435c.356.158.712.356,1.068.554.277.158.514.356.791.514a13.491,13.491,0,0,0,.672-1.3,2.932,2.932,0,0,0,.316-1.186c-.04-.633-.554-1.186-1.5-1.582a6.606,6.606,0,0,0-1.779-.514,11.382,11.382,0,0,0-2.333-.2,9.78,9.78,0,0,0-2.372.316,6.713,6.713,0,0,0-2.016.949,4.739,4.739,0,0,0-1.384,1.542,4.326,4.326,0,0,0-.514,2.1,4.478,4.478,0,0,0,.4,2.016,3.819,3.819,0,0,0,1.107,1.384,4.99,4.99,0,0,0,1.542.87,9.557,9.557,0,0,0,1.819.514,7.3,7.3,0,0,1,2.175.712,1.487,1.487,0,0,1,.712,1.384,1.509,1.509,0,0,1-.791,1.384,1.9,1.9,0,0,1-.791.277,6.465,6.465,0,0,1-.87.079,4.722,4.722,0,0,1-1.3-.158,6.442,6.442,0,0,1-1.226-.435,7.769,7.769,0,0,1-.988-.514,3.409,3.409,0,0,1-.712-.554c-.277.435-.514.87-.751,1.3a2.415,2.415,0,0,0-.316,1.186,1.261,1.261,0,0,0,.554,1.068,5.041,5.041,0,0,0,.988.593,7.735,7.735,0,0,0,1.621.514,10.106,10.106,0,0,0,2.451.2,9.378,9.378,0,0,0,2.57-.356,6.365,6.365,0,0,0,2.056-1.068,4.913,4.913,0,0,0,1.384-1.74,5.456,5.456,0,0,0,.514-2.372A4.429,4.429,0,0,0,54.6,15,4.7,4.7,0,0,0,53.377,13.577Zm16.685-5.97a5.771,5.771,0,0,0-1.977-1.384,6.772,6.772,0,0,0-2.333-.435,5.615,5.615,0,0,0-2.847.672,6.059,6.059,0,0,0-1.661,1.3A1.846,1.846,0,0,0,60.3,6.5a4.327,4.327,0,0,0-1.858-.356h-.633c-.158,0-.316.04-.474.04l-.4.079V29.63h4.428V21.168a2.876,2.876,0,0,0,.316.356,5.261,5.261,0,0,0,.751.554,6.558,6.558,0,0,0,1.226.474,6.02,6.02,0,0,0,1.661.237,7.551,7.551,0,0,0,2.293-.4,4.733,4.733,0,0,0,2.1-1.423,7.635,7.635,0,0,0,1.542-2.689,13.42,13.42,0,0,0,.593-4.349,12.17,12.17,0,0,0-.514-3.835A5.712,5.712,0,0,0,70.063,7.607Zm-3.6,10.2a2.609,2.609,0,0,1-2.451,1.344,3.693,3.693,0,0,1-1.582-.356,3.974,3.974,0,0,1-.949-.633V11.007a1.668,1.668,0,0,1,.554-1.186,2.7,2.7,0,0,1,1.937-.554,3.693,3.693,0,0,1,1.582.356,2.747,2.747,0,0,1,1.028.988,5.129,5.129,0,0,1,.554,1.542,10.25,10.25,0,0,1,.158,1.9A7.889,7.889,0,0,1,66.465,17.808ZM86.985,12a10.713,10.713,0,0,0-.316-2.728A4.3,4.3,0,0,0,85.562,7.33a4.483,4.483,0,0,0-2.016-1.147,10.982,10.982,0,0,0-3-.356,12.873,12.873,0,0,0-2.451.237,9.4,9.4,0,0,0-2.056.593,4.451,4.451,0,0,0-1.384.83,1.215,1.215,0,0,0-.514.909,2.836,2.836,0,0,0,.277,1.028,5.1,5.1,0,0,0,.751,1.265,22.145,22.145,0,0,1,2.175-1.068,6.85,6.85,0,0,1,2.53-.474,3.424,3.424,0,0,1,2.175.554,2.216,2.216,0,0,1,.672,1.819v.593H82a5.569,5.569,0,0,0-.791.04,19.582,19.582,0,0,0-2.61.316,9.063,9.063,0,0,0-2.649.87,5.6,5.6,0,0,0-2.016,1.7,4.459,4.459,0,0,0-.791,2.807,5.22,5.22,0,0,0,.474,2.333,4.146,4.146,0,0,0,1.186,1.542,4.219,4.219,0,0,0,1.621.83,6.88,6.88,0,0,0,1.779.237,6.956,6.956,0,0,0,2.886-.554,6.255,6.255,0,0,0,1.9-1.3,1.979,1.979,0,0,0,.791,1.344,2.811,2.811,0,0,0,1.779.474,4.908,4.908,0,0,0,1.068-.119,5.174,5.174,0,0,0,1.107-.356,7.62,7.62,0,0,1-.751-3.875V12Zm-4.231,5.891a1,1,0,0,1-.237.593,3.216,3.216,0,0,1-1.661,1.028,4.082,4.082,0,0,1-1.186.158,2.182,2.182,0,0,1-1.779-.672,2.349,2.349,0,0,1-.514-1.621,2.208,2.208,0,0,1,.4-1.384,3.1,3.1,0,0,1,1.028-.87,4.647,4.647,0,0,1,1.423-.474,12.345,12.345,0,0,1,1.621-.237,1.925,1.925,0,0,1,.474-.04h.474ZM102.208,6.262a5.27,5.27,0,0,0-1.107-.119,3.1,3.1,0,0,0-1.3.277,2.553,2.553,0,0,0-.87.712A3.525,3.525,0,0,0,98.333,8.2c-.158.435-.316.87-.435,1.3L95.446,18.6,92.481,8.2a2.576,2.576,0,0,0-.988-1.542,2.723,2.723,0,0,0-1.621-.514,7.28,7.28,0,0,0-1.3.119,6.435,6.435,0,0,0-1.186.277l5.061,15.618s1.661,3.993-1.3,4.231a3.4,3.4,0,0,1-1.265-.2,3.554,3.554,0,0,1-.949-.474,10.068,10.068,0,0,0-.672,1.3,2.354,2.354,0,0,0-.237,1.068,1.551,1.551,0,0,0,.949,1.5,6.186,6.186,0,0,0,2.451.435A6.07,6.07,0,0,0,95.6,28.681a7.438,7.438,0,0,0,2.175-3.558l5.417-18.5A4.207,4.207,0,0,0,102.208,6.262Z" transform="translate(18 41.975)"/>
    <g id="Mastercard" transform="translate(139.148 41.148)">
      <rect id="Rectangle_446" data-name="Rectangle 446" class="cls-2" width="13.125" height="23.583" transform="translate(17.708 3.208)"/>
      <path id="XMLID_3_" class="cls-3" d="M33.742,30.2A15.04,15.04,0,0,1,39.45,18.408a15,15,0,1,0,0,23.583A14.976,14.976,0,0,1,33.742,30.2Z" transform="translate(-15.2 -15.2)"/>
      <path id="Path_1050" data-name="Path 1050" class="cls-4" d="M97.65,30.2A14.984,14.984,0,0,1,73.4,41.992a15.033,15.033,0,0,0,0-23.583A14.984,14.984,0,0,1,97.65,30.2Z" transform="translate(-49.15 -15.2)"/>
    </g>
    <g id="Visa" transform="translate(202.299 45.897)">
      <g id="g10269" class="cls-5">
        <g id="g10275" transform="translate(-7.134 -22.093)">
          <path id="path10283" class="cls-1" d="M0-155.984,67.126-180.7,82.4-139.238,15.272-114.518" transform="translate(0 180.705)"/>
        </g>
      </g>
    </g>
    <path id="Path_2516" data-name="Path 2516" class="cls-6" d="M6.012-2.279a2.1,2.1,0,0,1-.82,1.764A3.557,3.557,0,0,1,2.965.117,5.577,5.577,0,0,1,.621-.275v-.961A6.171,6.171,0,0,0,1.77-.885,6.042,6.042,0,0,0,3-.756a2.483,2.483,0,0,0,1.5-.378A1.24,1.24,0,0,0,5-2.186a1.35,1.35,0,0,0-.179-.729,1.66,1.66,0,0,0-.6-.524,8.361,8.361,0,0,0-1.274-.545A4.068,4.068,0,0,1,1.245-5,2.238,2.238,0,0,1,.732-6.527,1.9,1.9,0,0,1,1.477-8.1a3.092,3.092,0,0,1,1.969-.586,5.8,5.8,0,0,1,2.35.469l-.311.867A5.31,5.31,0,0,0,3.422-7.8a2,2,0,0,0-1.236.34,1.12,1.12,0,0,0-.445.943,1.446,1.446,0,0,0,.164.729,1.545,1.545,0,0,0,.554.521A6.88,6.88,0,0,0,3.65-4.74,4.721,4.721,0,0,1,5.5-3.709,2.028,2.028,0,0,1,6.012-2.279ZM10.33.117A2.95,2.95,0,0,1,8.083-.75,3.357,3.357,0,0,1,7.26-3.158a3.723,3.723,0,0,1,.765-2.467,2.54,2.54,0,0,1,2.054-.914,2.422,2.422,0,0,1,1.91.794,3.043,3.043,0,0,1,.7,2.095v.615H8.268a2.546,2.546,0,0,0,.571,1.717,1.976,1.976,0,0,0,1.526.586,5.172,5.172,0,0,0,2.051-.434V-.3a5.147,5.147,0,0,1-.976.319A5.483,5.483,0,0,1,10.33.117Zm-.264-5.842a1.588,1.588,0,0,0-1.233.5,2.323,2.323,0,0,0-.542,1.395h3.357a2.139,2.139,0,0,0-.41-1.409A1.444,1.444,0,0,0,10.066-5.725ZM16.916.117a2.741,2.741,0,0,1-2.159-.858,3.53,3.53,0,0,1-.765-2.429,3.64,3.64,0,0,1,.776-2.49,2.8,2.8,0,0,1,2.212-.879,4.389,4.389,0,0,1,.926.1,3.05,3.05,0,0,1,.727.234l-.3.826a4.574,4.574,0,0,0-.7-.214,3.139,3.139,0,0,0-.674-.085Q15-5.678,15-3.182a2.972,2.972,0,0,0,.478,1.816,1.661,1.661,0,0,0,1.415.633,4.326,4.326,0,0,0,1.646-.346v.861A3.509,3.509,0,0,1,16.916.117Zm4.061-6.539v4.166a1.676,1.676,0,0,0,.357,1.172A1.456,1.456,0,0,0,22.453-.7a1.826,1.826,0,0,0,1.474-.551,2.778,2.778,0,0,0,.466-1.8V-6.422h.973V0h-.8l-.141-.861h-.053a1.939,1.939,0,0,1-.829.727,2.787,2.787,0,0,1-1.21.252,2.455,2.455,0,0,1-1.755-.557,2.37,2.37,0,0,1-.583-1.781v-4.2Zm9.381-.117a3.806,3.806,0,0,1,.768.07l-.135.9a3.313,3.313,0,0,0-.7-.088,1.712,1.712,0,0,0-1.333.633A2.307,2.307,0,0,0,28.4-3.445V0h-.973V-6.422h.8l.111,1.189h.047A2.823,2.823,0,0,1,29.25-6.2,1.939,1.939,0,0,1,30.357-6.539ZM35.039.117A2.95,2.95,0,0,1,32.792-.75a3.357,3.357,0,0,1-.823-2.408,3.723,3.723,0,0,1,.765-2.467,2.54,2.54,0,0,1,2.054-.914,2.422,2.422,0,0,1,1.91.794,3.043,3.043,0,0,1,.7,2.095v.615H32.977a2.546,2.546,0,0,0,.571,1.717,1.976,1.976,0,0,0,1.526.586,5.172,5.172,0,0,0,2.051-.434V-.3a5.147,5.147,0,0,1-.976.319A5.483,5.483,0,0,1,35.039.117Zm-.264-5.842a1.588,1.588,0,0,0-1.233.5A2.323,2.323,0,0,0,33-3.826h3.357a2.139,2.139,0,0,0-.41-1.409A1.444,1.444,0,0,0,34.775-5.725ZM47.754-6.07a2.4,2.4,0,0,1-.888,2,4.021,4.021,0,0,1-2.54.7H43.318V0h-1V-8.566h2.221Q47.754-8.566,47.754-6.07ZM43.318-4.225h.9a3.332,3.332,0,0,0,1.916-.428,1.576,1.576,0,0,0,.592-1.371,1.478,1.478,0,0,0-.557-1.266,2.908,2.908,0,0,0-1.734-.416H43.318ZM53.35,0l-.193-.914h-.047a2.7,2.7,0,0,1-.958.817,2.92,2.92,0,0,1-1.192.214,2.145,2.145,0,0,1-1.5-.492,1.8,1.8,0,0,1-.542-1.4q0-1.945,3.111-2.039l1.09-.035v-.4A1.628,1.628,0,0,0,52.8-5.364a1.337,1.337,0,0,0-1.04-.36,4.238,4.238,0,0,0-1.816.492l-.3-.744a4.571,4.571,0,0,1,1.04-.4,4.5,4.5,0,0,1,1.134-.146,2.446,2.446,0,0,1,1.7.51,2.128,2.128,0,0,1,.554,1.635V0Zm-2.2-.686a1.974,1.974,0,0,0,1.427-.5A1.842,1.842,0,0,0,53.1-2.578v-.58l-.973.041a3.538,3.538,0,0,0-1.673.36,1.087,1.087,0,0,0-.513.993,1,1,0,0,0,.319.8A1.326,1.326,0,0,0,51.152-.686Zm3.9-5.736H56.1L57.5-2.76a13.929,13.929,0,0,1,.574,1.811h.047q.076-.3.319-1.022t1.591-4.45h1.043L58.318.891a3.648,3.648,0,0,1-.958,1.538,2.037,2.037,0,0,1-1.345.454,3.913,3.913,0,0,1-.879-.1V2a3.39,3.39,0,0,0,.721.07A1.486,1.486,0,0,0,57.287.949l.357-.914ZM70.307,0V-4.178a1.734,1.734,0,0,0-.328-1.151,1.269,1.269,0,0,0-1.02-.384,1.646,1.646,0,0,0-1.342.521,2.478,2.478,0,0,0-.434,1.605V0h-.973V-4.178a1.734,1.734,0,0,0-.328-1.151,1.277,1.277,0,0,0-1.025-.384,1.588,1.588,0,0,0-1.339.548,2.965,2.965,0,0,0-.425,1.8V0h-.973V-6.422h.791l.158.879h.047a1.912,1.912,0,0,1,.776-.732,2.372,2.372,0,0,1,1.122-.264,1.908,1.908,0,0,1,1.969,1.09h.047a2.048,2.048,0,0,1,.832-.8,2.582,2.582,0,0,1,1.242-.293,2.175,2.175,0,0,1,1.632.56,2.5,2.5,0,0,1,.542,1.79V0ZM76,.117A2.95,2.95,0,0,1,73.749-.75a3.357,3.357,0,0,1-.823-2.408,3.723,3.723,0,0,1,.765-2.467,2.54,2.54,0,0,1,2.054-.914,2.422,2.422,0,0,1,1.91.794,3.043,3.043,0,0,1,.7,2.095v.615H73.934A2.546,2.546,0,0,0,74.5-1.318a1.976,1.976,0,0,0,1.526.586,5.172,5.172,0,0,0,2.051-.434V-.3a5.147,5.147,0,0,1-.976.319A5.483,5.483,0,0,1,76,.117Zm-.264-5.842a1.588,1.588,0,0,0-1.233.5,2.323,2.323,0,0,0-.542,1.395h3.357a2.139,2.139,0,0,0-.41-1.409A1.444,1.444,0,0,0,75.732-5.725ZM84.41,0V-4.154a1.676,1.676,0,0,0-.357-1.172,1.456,1.456,0,0,0-1.119-.387,1.846,1.846,0,0,0-1.477.545,2.751,2.751,0,0,0-.469,1.8V0h-.973V-6.422h.791l.158.879h.047a1.986,1.986,0,0,1,.838-.735,2.722,2.722,0,0,1,1.2-.261,2.439,2.439,0,0,1,1.746.56,2.381,2.381,0,0,1,.586,1.79V0Zm5.045-.686a3.177,3.177,0,0,0,.5-.038A3.224,3.224,0,0,0,90.334-.8v.744a1.778,1.778,0,0,1-.466.126,3.5,3.5,0,0,1-.554.05q-1.863,0-1.863-1.963v-3.82h-.92v-.469l.92-.4.41-1.371h.563v1.488h1.863v.756H88.424v3.779A1.3,1.3,0,0,0,88.7-1,.958.958,0,0,0,89.455-.686Zm6.3-1.066a1.609,1.609,0,0,1-.668,1.383,3.14,3.14,0,0,1-1.875.486,4.077,4.077,0,0,1-1.992-.4v-.9a4.818,4.818,0,0,0,.993.369,4.147,4.147,0,0,0,1.022.135,2.319,2.319,0,0,0,1.172-.243.8.8,0,0,0,.41-.741.8.8,0,0,0-.325-.642,5.115,5.115,0,0,0-1.269-.63,6.879,6.879,0,0,1-1.274-.583,1.741,1.741,0,0,1-.562-.565,1.475,1.475,0,0,1-.185-.756,1.441,1.441,0,0,1,.639-1.239A2.976,2.976,0,0,1,93.6-6.539a5.126,5.126,0,0,1,2.027.422l-.346.791a4.654,4.654,0,0,0-1.752-.4,2.016,2.016,0,0,0-1.043.217.67.67,0,0,0-.352.6.728.728,0,0,0,.132.439,1.3,1.3,0,0,0,.425.346,9.493,9.493,0,0,0,1.125.475,4.2,4.2,0,0,1,1.544.838A1.478,1.478,0,0,1,95.76-1.752Zm7.688-4.775a2.387,2.387,0,0,1,1.966.864,3.793,3.793,0,0,1,.7,2.446,3.821,3.821,0,0,1-.706,2.458,2.378,2.378,0,0,1-1.96.876A2.779,2.779,0,0,1,102.3-.114a2.154,2.154,0,0,1-.87-.712h-.07L101.156,0h-.7V-9.117h.973V-6.9q0,.744-.047,1.336h.047A2.309,2.309,0,0,1,103.447-6.527Zm-.141.814a1.7,1.7,0,0,0-1.436.571,3.223,3.223,0,0,0-.439,1.925,3.214,3.214,0,0,0,.451,1.937A1.716,1.716,0,0,0,103.33-.7a1.5,1.5,0,0,0,1.336-.653,3.358,3.358,0,0,0,.439-1.878,3.227,3.227,0,0,0-.439-1.869A1.557,1.557,0,0,0,103.307-5.713Zm3.486-.709h1.043l1.406,3.662a13.929,13.929,0,0,1,.574,1.811h.047q.076-.3.319-1.022t1.591-4.45h1.043L110.057.891a3.648,3.648,0,0,1-.958,1.538,2.037,2.037,0,0,1-1.345.454,3.913,3.913,0,0,1-.879-.1V2a3.39,3.39,0,0,0,.721.07,1.486,1.486,0,0,0,1.43-1.125l.357-.914Z" transform="translate(18 32)"/>
  </g>
</svg>
